<svg xmlns="http://www.w3.org/2000/svg" width="20" height="23.376" viewBox="0 0 20 23.376">
  <g id="shopping-bag" transform="translate(-0.25 0)">
    <path id="Path_161" data-name="Path 161" d="M105.174,208.25a4.924,4.924,0,1,0,4.924,4.924A4.924,4.924,0,0,0,105.174,208.25Zm0,9.137a4.213,4.213,0,1,1,4.213-4.213A4.213,4.213,0,0,1,105.174,217.387Zm0,0" transform="translate(-94.924 -197.679)" fill="#a2a2a2"/>
    <path id="Path_162" data-name="Path 162" d="M149.309,272.484l-2.785,2.66-1.476-1.477a.355.355,0,1,0-.5.5l1.722,1.722a.355.355,0,0,0,.5.006L149.8,273a.355.355,0,1,0-.491-.514Zm0,0" transform="translate(-136.872 -258.557)" fill="#a2a2a2"/>
    <path id="Path_163" data-name="Path 163" d="M17.921,7.353A1.592,1.592,0,0,0,16.341,6H14.718V4.468a4.468,4.468,0,1,0-8.937,0V6H4.159a1.592,1.592,0,0,0-1.58,1.348L.255,20.469a.342.342,0,0,0-.006.062,2.848,2.848,0,0,0,2.844,2.844H17.406a2.848,2.848,0,0,0,2.844-2.844.363.363,0,0,0-.005-.062ZM6.492,4.468a3.758,3.758,0,1,1,7.515,0V6H6.492Zm10.914,18.2H3.094a2.136,2.136,0,0,1-2.134-2.1L3.279,7.473a.068.068,0,0,0,0-.007.885.885,0,0,1,.878-.751H5.781V9.075a.355.355,0,0,0,.711,0V6.715h7.516V9.075a.355.355,0,0,0,.711,0V6.715h1.623a.885.885,0,0,1,.878.751v.007l2.319,13.088a2.136,2.136,0,0,1-2.134,2.1Zm0,0" fill="#a2a2a2"/>
  </g>
</svg>
