<svg xmlns="http://www.w3.org/2000/svg" width="20" height="19.876" viewBox="0 0 20 19.876">
  <g id="Group_119" data-name="Group 119" transform="translate(-21 -330.562)">
    <g id="pencil" transform="translate(21 329.076)">
      <g id="Group_53" data-name="Group 53" transform="translate(1.263 1.486)">
        <g id="Group_52" data-name="Group 52" transform="translate(0 0)">
          <path id="Path_157" data-name="Path 157" d="M47.968,3.665,46.082,1.779a1,1,0,0,0-1.414,0L31.826,14.622s0,.008-.007.011a.322.322,0,0,0-.057.085.233.233,0,0,0-.011.022s0,.007-.006.011L30.331,19a.333.333,0,0,0,.42.42L34.994,18S35,18,35.005,18l.022-.011a.322.322,0,0,0,.085-.057s.008,0,.011-.007L47.968,5.079A1,1,0,0,0,47.968,3.665ZM31.174,18.573l1.033-3.1,2.067,2.067Zm3.716-1.358-2.357-2.357L43.018,4.372l.943.943.471.471.943.943ZM47.5,4.608l-1.65,1.65L44.669,5.08,43.489,3.9l1.65-1.65a.333.333,0,0,1,.471,0L47.5,4.136A.333.333,0,0,1,47.5,4.608Z" transform="translate(-30.315 -1.486)" fill="#a2a2a2"/>
        </g>
      </g>
      <g id="Group_55" data-name="Group 55" transform="translate(0 20.696)">
        <g id="Group_54" data-name="Group 54">
          <path id="Path_158" data-name="Path 158" d="M19.667,462.513H.333a.333.333,0,0,0,0,.667H19.667a.333.333,0,0,0,0-.667Z" transform="translate(0 -462.513)" fill="#a2a2a2"/>
        </g>
      </g>
    </g>
  </g>
</svg>
