<svg xmlns="http://www.w3.org/2000/svg" width="23" height="23" viewBox="0 0 23 23">
  <g id="location_2_" data-name="location (2)" transform="translate(-13.75 -13.75)">
    <path id="Path_164" data-name="Path 164" d="M69.345,32.4a2.795,2.795,0,1,0-2.794-2.794A2.795,2.795,0,0,0,69.345,32.4Zm0-4.788a1.994,1.994,0,1,1-1.993,1.993,1.994,1.994,0,0,1,1.993-1.993Z" transform="translate(-40.717 -10.074)" fill="#a2a2a2"/>
    <path id="Path_165" data-name="Path 165" d="M36.35,35.949H31.978V26.981l1.173.622a.4.4,0,0,0,.375-.708l-2.582-1.367c1.571-1.695,3.468-4.126,3.468-5.993a5.784,5.784,0,1,0-11.569,0,6.731,6.731,0,0,0,1.406,3.455l-7.278,3.9a.4.4,0,1,0,.379.706l1.163-.624v8.973H14.151a.4.4,0,0,0,0,.8h22.2a.4.4,0,1,0,0-.8Zm-7.721-21.4a4.989,4.989,0,0,1,4.983,4.983c0,1.117-.9,2.743-2.589,4.7a32.132,32.132,0,0,1-2.395,2.47,32.176,32.176,0,0,1-2.394-2.47c-1.694-1.96-2.589-3.587-2.589-4.7a4.989,4.989,0,0,1,4.983-4.983ZM19.315,26.546l5.406-2.9a30,30,0,0,0,3.641,3.9.4.4,0,0,0,.529,0c.073-.065.687-.609,1.478-1.419l.807.426v9.392H19.315Zm7.694,9.4h0Z" fill="#a2a2a2"/>
  </g>
</svg>
