<svg xmlns="http://www.w3.org/2000/svg" width="23" height="21.999" viewBox="0 0 23 21.999">
  <path id="star" d="M17.82,20.84a1.28,1.28,0,0,1-.753-.244L11.8,16.77a.511.511,0,0,0-.6,0L5.935,20.6a1.278,1.278,0,0,1-1.967-1.429l2.011-6.19a.509.509,0,0,0-.186-.572L.528,8.58A1.278,1.278,0,0,1,.244,6.795a1.282,1.282,0,0,1,1.035-.528H7.787a.509.509,0,0,0,.486-.353l2.011-6.19A1.28,1.28,0,0,1,11.9-1.1a1.283,1.283,0,0,1,.821.821h0l2.011,6.19a.511.511,0,0,0,.487.353h6.509a1.278,1.278,0,0,1,.75,2.313L17.208,12.4a.509.509,0,0,0-.186.571l2.012,6.19A1.278,1.278,0,0,1,17.82,20.84ZM1.279,7.034a.511.511,0,0,0-.3.925l5.265,3.826a1.273,1.273,0,0,1,.464,1.429L4.7,19.4a.512.512,0,0,0,.787.572l5.266-3.826a1.273,1.273,0,0,1,1.5,0l5.266,3.826a.516.516,0,0,0,.459.072.512.512,0,0,0,.328-.644l-2.012-6.19a1.274,1.274,0,0,1,.464-1.429L22.022,7.96a.511.511,0,0,0-.3-.925H15.214A1.276,1.276,0,0,1,14,6.15L11.987-.039h0a.514.514,0,0,0-.329-.329.512.512,0,0,0-.644.329L9,6.15a1.275,1.275,0,0,1-1.216.884Zm0,0" transform="translate(0 1.159)"/>
</svg>
