<svg xmlns="http://www.w3.org/2000/svg" width="23" height="20.82" viewBox="0 0 23 20.82">
  <g id="file" transform="translate(-2 -5.317)">
    <path id="Path_170" data-name="Path 170" d="M22.052,26.137H10.1a2.95,2.95,0,0,1-2.948-2.948V9.459H2.329A.329.329,0,0,1,2,9.13V8.22a2.9,2.9,0,1,1,5.806,0V23.189a2.291,2.291,0,0,0,4.582,0,.329.329,0,0,1,.329-.329H24.671a.329.329,0,0,1,.329.329,2.951,2.951,0,0,1-2.948,2.948Zm-10.1-.657h10.1a2.294,2.294,0,0,0,2.267-1.962H13.027A2.948,2.948,0,0,1,11.95,25.48ZM2.657,8.8H7.149V8.22a2.246,2.246,0,1,0-4.492,0Z"/>
    <path id="Path_171" data-name="Path 171" d="M26.679,10.163a.329.329,0,0,1-.329-.329V8.277a2.3,2.3,0,0,0-2.3-2.3H10.169a.329.329,0,1,1,0-.657H24.051a2.96,2.96,0,0,1,2.957,2.957V9.835A.329.329,0,0,1,26.679,10.163Z" transform="translate(-5.264 -0.002)"/>
    <path id="Path_172" data-name="Path 172" d="M60.419,36.626a.329.329,0,0,1-.329-.329v-.969a.329.329,0,0,1,.657,0V36.3A.329.329,0,0,1,60.419,36.626Z" transform="translate(-39.003 -19.93)"/>
    <path id="Path_173" data-name="Path 173" d="M60.419,50.115a.329.329,0,0,1-.329-.329V45.259a.329.329,0,1,1,.657,0v4.528A.329.329,0,0,1,60.419,50.115Z" transform="translate(-39.003 -26.597)"/>
    <path id="Path_174" data-name="Path 174" d="M60.419,26.69a.329.329,0,0,1-.329-.329V25.4a.329.329,0,1,1,.657,0v.963A.329.329,0,0,1,60.419,26.69Z" transform="translate(-39.003 -13.263)"/>
    <path id="Path_175" data-name="Path 175" d="M34.529,19.657h-9.2a.329.329,0,1,1,0-.657h9.2a.329.329,0,1,1,0,.657Z" transform="translate(-15.443 -9.187)"/>
    <path id="Path_176" data-name="Path 176" d="M34.529,28.99h-9.2a.329.329,0,1,1,0-.657h9.2a.329.329,0,1,1,0,.657Z" transform="translate(-15.443 -15.454)"/>
    <path id="Path_177" data-name="Path 177" d="M34.529,38.324h-9.2a.329.329,0,1,1,0-.657h9.2a.329.329,0,1,1,0,.657Z" transform="translate(-15.443 -21.721)"/>
    <path id="Path_178" data-name="Path 178" d="M34.529,47.657h-9.2a.329.329,0,1,1,0-.657h9.2a.329.329,0,1,1,0,.657Z" transform="translate(-15.443 -27.987)"/>
  </g>
</svg>
