<svg id="facebook_1_" data-name="facebook (1)" xmlns="http://www.w3.org/2000/svg" width="20" height="20" viewBox="0 0 20 20">
  <g id="Group_11" data-name="Group 11" transform="translate(0 0)">
    <path id="Path_14" data-name="Path 14" d="M17.333-1H.667A1.65,1.65,0,0,0-1,.667V17.333A1.65,1.65,0,0,0,.667,19H17.333A1.65,1.65,0,0,0,19,17.333V.667A1.65,1.65,0,0,0,17.333-1ZM9,18.333V11.667H6.333V9H9V6.667A3.691,3.691,0,0,1,12.333,3h3V5.667H12.667a.982.982,0,0,0-1,1V9H15v2.667H11.667v6.667H9Zm9.333-1a.982.982,0,0,1-1,1h-5v-6h3.333v-4H12.333V6.667a.315.315,0,0,1,.333-.333H16v-4H12.3A4.375,4.375,0,0,0,8.333,6.667V8.333H5.667v4H8.333v6H.667a.982.982,0,0,1-1-1V.667a.982.982,0,0,1,1-1H17.333a.982.982,0,0,1,1,1V17.333Z" transform="translate(1 1)"/>
  </g>
</svg>
