<svg id="instagram_2_" data-name="instagram (2)" xmlns="http://www.w3.org/2000/svg" width="20" height="20" viewBox="0 0 20 20">
  <g id="Group_13" data-name="Group 13" transform="translate(0 0)">
    <g id="Group_12" data-name="Group 12">
      <path id="Path_15" data-name="Path 15" d="M13.3-1H4.7A5.719,5.719,0,0,0-1,4.7v8.6A5.719,5.719,0,0,0,4.7,19h8.6A5.719,5.719,0,0,0,19,13.3V4.7A5.719,5.719,0,0,0,13.3-1Zm5.033,14.3A5.05,5.05,0,0,1,13.3,18.333H4.7A5.05,5.05,0,0,1-.333,13.3V4.7A5.05,5.05,0,0,1,4.7-.333h8.6A5.05,5.05,0,0,1,18.333,4.7Z" transform="translate(1 1)"/>
      <path id="Path_17" data-name="Path 17" d="M123.8,118.467a5.333,5.333,0,1,0,5.333,5.333A5.349,5.349,0,0,0,123.8,118.467Zm0,10a4.667,4.667,0,1,1,4.667-4.667A4.68,4.68,0,0,1,123.8,128.467Z" transform="translate(-113.8 -113.8)"/>
      <path id="Path_19" data-name="Path 19" d="M366.933,92.867a1,1,0,1,0,1,1A.982.982,0,0,0,366.933,92.867Z" transform="translate(-351.6 -89.2)"/>
    </g>
  </g>
</svg>
