<svg xmlns="http://www.w3.org/2000/svg" width="170" height="107.29" viewBox="0 0 170 107.29">
  <g id="Layer_2" data-name="Layer 2" transform="translate(-0.007 0.004)">
    <g id="Layer_1" data-name="Layer 1" transform="translate(0.007 -0.004)">
      <path id="Path_1" data-name="Path 1" d="M54.207,22.641c-.091-.814,10.48.465,14.543-6.6A9.4,9.4,0,0,0,65.557,3.6a8.711,8.711,0,0,0-12.227,3A27.852,27.852,0,0,0,50.5,14.873c-3.56,21.12-6.948,57.379-7.359,62.79-.459,6.011-5.87,6.992-8.129-1.172-3.142-11.347-8.978-57.737-12.255-57.5-1.524.113,1.81,46.089-4.748,63.136C16.876,85.07,12.442,88.536,6.953,87.4A8.624,8.624,0,0,1,2.1,84.752C-.938,81.236.187,76.444.319,75.951c1.48-5.656,9.92-10.659,11.495-8.865a.943.943,0,0,1,.129.195,1.106,1.106,0,0,1,.1.314c.047.383-6.338,2.608-8.679,8.591-2.448,6.256,3.1,8.846,4.861,8.723,4.032-.277,6.109-1.59,7.077-3.972,6.5-16.026,1.276-69.917,5.461-70.756C33.147,7.7,38.464,74.823,39.394,74.662c.6-.11,4.776-35.483,8.007-61.37C49.025.368,61.054-1.734,66.308,1.11a11.4,11.4,0,0,1,4.575,15.907c-2.225,3.805-5.908,4.663-7.121,5.113a17.882,17.882,0,0,1-2.134.628v8.17H60.338V23.005c-3.369.537-6.071.072-6.121-.365M169.908,67.8a6.6,6.6,0,0,1-.98,1.449,12.391,12.391,0,0,1-1.449,1.452c-.522.443-.833.72-.943.823a27.777,27.777,0,0,1-2.9,2.231,9.84,9.84,0,0,1-2.118,1.084c-.764.289-.943.211-1.015.314-3.293,6-6.316,7.127-10.91,6.7-1.317-.116-1.618-1.618-1.606-2.514.022-1.989,2.985-3.743,5.559-3.8a6.376,6.376,0,0,1,3.017.7l.7-1.094a20.235,20.235,0,0,0,1.788-7.089,18.187,18.187,0,0,0-.679-4.45l-.628.729c-.119.176-.475.566-.628.76-.3.393-.735.968-.848,1.1-1.156,1.445-1.571,2.14-2.768,3.56s-2.467,2.828-3.821,4.22c-1.018,1.05-1.48,1.6-2.1,2.228-2.982,3.02-6.373,6.461-8.9,5.637-1.684-.55-2.658-2.894-2.709-4.572s1.075-3.519,3.325-7.1c.578-.918,1.075-1.659,1.4-2.143l3.394-4.142c.4-.487.723-.864.958-1.141s.5-.553.751-.836a3.927,3.927,0,0,1,.581-.528h-1.056a27.536,27.536,0,0,0-4.852.528,19.627,19.627,0,0,0-1.753,2.973c-.616,1.087-1.486,3.086-3.1,5.97-2.514,4.468-3.529,6.825-5.568,8.553-1.885,1.6-3.249,2.5-4.984,2.552a7.584,7.584,0,0,1-5.263-2.489,8.145,8.145,0,0,1-1.282-1.885,14.993,14.993,0,0,1-1.766,3.142,3.74,3.74,0,0,1-2.564,1.216c-2.416,0-3.9-2.618-4.8-5.245-.581.817-1.823,3.02-3.365,4.069a7.036,7.036,0,0,1-3.538,1.229c-1.257,0-2.127-1.257-2.828-3.01a18.811,18.811,0,0,1-1.043-6.863,59.637,59.637,0,0,1,2.426-15.4c.063-.484-.129-.694-.581-.628a1.21,1.21,0,0,0-.679.39,22.383,22.383,0,0,0-5,6.285,43.153,43.153,0,0,0-3.045,6.285C91.067,70.753,89,79.605,88.663,80.535h0c-.141.3-.559,1.112-.943,1.166-.962.129-1.455-1.285-1.455-3.874,0-1.772,1.037-9.367,1.16-11.149q-1.339,3.639-2.844,7.416a44.909,44.909,0,0,1-3.6,7.161l-.1,2.655c-.132,2.6-.314,5.188-.575,7.752A53.633,53.633,0,0,1,79.013,99.2c-.261,1.078-.581,2.2-.965,3.34a9.468,9.468,0,0,1-1.647,3.023,4.677,4.677,0,0,1-1.345,1.15l-.154.082a2.737,2.737,0,0,1-2,.434,3,3,0,0,1-1.48-.864,4.494,4.494,0,0,1-.943-1.609,7.542,7.542,0,0,1-.415-1.81,15.486,15.486,0,0,1,.38-4.9,30.131,30.131,0,0,1,1.521-4.638,31.965,31.965,0,0,1,2.668-5.2q1.593-2.482,3.067-5.009l.069-3.435c0-1.662,0-3.325.025-5s.075-3.331.148-4.968c-.459,1.191-.927,2.363-1.4,3.529a20.264,20.264,0,0,1-1.728,3.318,14.863,14.863,0,0,1-1.062,1.4,5.656,5.656,0,0,1-1.4,1.229,3.309,3.309,0,0,1-1.643.537,2.316,2.316,0,0,1-1.691-.7,5.71,5.71,0,0,1-1.885-3.62c-.028-.195-.053-.38-.072-.575-.245.55-.522,1.15-.83,1.807a19.408,19.408,0,0,1-1.166,2.109c-.255.393-.484.7-.566.811-.921,1.207-3.233,2.514-4.635,2.281-2.074-.314-4.176-4.336-3.237-9.817a1.4,1.4,0,0,1-.471.534c-.591.314-.924.233-1-.264a5.637,5.637,0,0,1,.113-1.926c.148-.782,1.172-6.712,1.389-7.435s.349-1.153.393-1.31q.377-1.257,1-2.922a4.553,4.553,0,0,1,1.845-2.423,1.867,1.867,0,0,1,1.257-.154,2.944,2.944,0,0,1,1.2.456,1.087,1.087,0,0,1,.38.792,4.321,4.321,0,0,1-.1,1.15,9.939,9.939,0,0,1-.314,1.216c-.129.38-.2.682-.273.908-.465,1.973-1.7,9.081-2.014,10.97-.113.509-.236,1.163-.377,1.973s-.236,1.621-.314,2.448a7.693,7.693,0,0,0,.163,2.35,2.435,2.435,0,0,0,.987,1.571,1.964,1.964,0,0,0,1.571-.459,7.093,7.093,0,0,0,1.329-1.43,15.082,15.082,0,0,0,1.1-1.788s.418-.789.738-1.543c.965-2.269,4.858-13.386,7.011-16.378a19.43,19.43,0,0,1,1.3-1.571A11.352,11.352,0,0,1,75.251,55.3a8.089,8.089,0,0,1,1.917-1.024,2.753,2.753,0,0,1,2.03.063A3.3,3.3,0,0,1,80.666,55.7a1.571,1.571,0,0,1,1.257-.6c.418.025.588.314.512.9a.493.493,0,0,1,.019.39,27.627,27.627,0,0,0-.72,5.989q-.044,3.117-.173,6.084c-.138,1.4-.214,2.812-.223,4.214s-.06,2.794-.145,4.176q1.838-3.831,3.438-7.724t2.878-8.007c.273-.817.506-1.612.7-2.388s.393-1.571.581-2.423a.842.842,0,0,1,.1-.314,56.983,56.983,0,0,1,3.579-11.941q2.137-4.682,3.972-4.679a.688.688,0,0,1,.779.779A71.018,71.018,0,0,0,92.936,53.1q-1.725,7.281-2.882,15.514h.333c3.523-8.638,8.723-14.571,12.073-14.571,1.653,0,2.476.251,2.476,1.832l-.874,2.935q-.541,1.816-1.408,6.52a63.2,63.2,0,0,0-1.16,9.5c0,3.431.5,5.106,1.505,5.144a4.76,4.76,0,0,0,2.932-1.213,12.365,12.365,0,0,0,2.929-4.349,25.088,25.088,0,0,1-.264-3.809c0-5.656,1.053-16.752,3.142-23.184a12.708,12.708,0,0,1-1.647.1c-1.257,0-1.885-.515-1.885-1.555a.679.679,0,0,1,.49-.729.22.22,0,0,1,.145-.044,1.377,1.377,0,0,0,1.084.339c.525,0,1.389-.031,2.552-.1q2.275-6.159,4.365-6.159c.55,0,.823.314.823.921-.522,1.3-1.1,2.96-1.747,5q4.8-.531,6.253-.537a.346.346,0,0,1,.39.393c0,.512-.336.773-1.015.773q-.537,0-6.156,1.021a100.442,100.442,0,0,0-3.834,24.67c0,2.222.786,8.484,2.844,8.8,1.323.2,2.794-2.14,3.8-4.085a7.8,7.8,0,0,1-.075-1.1,14.722,14.722,0,0,1,1.291-5.776,22.084,22.084,0,0,1,3.541-5.7,13.682,13.682,0,0,1,5.15-3.846,5.916,5.916,0,0,1,2.668-.6,5.2,5.2,0,0,1,2.366.723,2.443,2.443,0,0,1,1.034,1.885q0,3.633-4.368,6.967a12.975,12.975,0,0,1-3.771,1.848,12.688,12.688,0,0,1-3.7.823,6.624,6.624,0,0,0-.848,4.607c.085.421.628,3.1,2.558,3.68.314.094,1.4.355,3.369-.886a13.2,13.2,0,0,0,4.808-6.1,80.789,80.789,0,0,1,6.539-11.573,2.352,2.352,0,0,1-.628-2.828,7.288,7.288,0,0,1,.974-2.105,16.588,16.588,0,0,1,1.719-2.306,6.011,6.011,0,0,1,2.156-1.782c.943-.4,2.57-.669,3.142.066s-.123,2-.779,3.29a16.478,16.478,0,0,1-3.309,4.418,6.865,6.865,0,0,0,1.606-.33c.751-.195,1.612-.38,2.589-.562a2.445,2.445,0,0,1,1.571.116A2.914,2.914,0,0,1,149.357,61a2.705,2.705,0,0,1,.044,1.178,7.874,7.874,0,0,1-1.012,2.734,16.687,16.687,0,0,1-1.845,2.561c-.7.8-1.257,1.439-1.662,1.92l-1.543,1.571c-.273.28-.518.547-.735.8,0,0-.654.729-1.229,1.486-.808,1.062-3.189,5.2-2.341,5.933s4.66-2.109,6.731-4.05c.251-.236.544-.572,1.116-1.125a49.155,49.155,0,0,0,4.49-4.714l6.542-7.425a6.628,6.628,0,0,1-.038-1.917,4.445,4.445,0,0,1,.584-1.769A3.2,3.2,0,0,1,161.6,56.6c.575.107.943.314,1.056.588a1.373,1.373,0,0,1,0,1.015,3.737,3.737,0,0,1-.628,1.138l-.745.943-1.725,2.036.079.079q.628,1.64,1.295,3.174a12.212,12.212,0,0,1,.9,3.359,8.434,8.434,0,0,1-.7,4.4,9.861,9.861,0,0,0,2.2-1.213,20.8,20.8,0,0,0,1.885-1.527,5.282,5.282,0,0,0,.823-.861q.512-.628,1.134-1.295a9.865,9.865,0,0,1,1.216-1.1,1.427,1.427,0,0,1,1.056-.349c.522.1.682.374.471.82M122.87,70.565a9.66,9.66,0,0,0,3-.732,11.551,11.551,0,0,0,3.425-1.939q3.315-2.85,3.315-5.992c0-.811-.314-1.216-.971-1.216q-1.7,0-5.15,4.179a31.318,31.318,0,0,0-3.62,5.7M77.652,86.512q-1.471,2.514-2.731,5.081a34.773,34.773,0,0,0-2.1,5.307,38.132,38.132,0,0,0-.965,3.79,6.19,6.19,0,0,0,.361,3.84c.145.248.292.481.44.7a.962.962,0,0,0,.666.374.572.572,0,0,0,.465-.063,1,1,0,0,1,.421-.135.836.836,0,0,1,.349-.449,1.624,1.624,0,0,0,.387-.361,5.21,5.21,0,0,0,.654-1.32c.151-.452.314-.88.468-1.31a24.744,24.744,0,0,0,.688-3.378c.151-1.15.314-2.3.452-3.457.145-1.4.242-2.828.314-4.252s.11-2.885.138-4.368m2.093-28.693a1.656,1.656,0,0,0-.343-1.056,1.59,1.59,0,0,0-.874-.751,1.735,1.735,0,0,0-1.552.522,11.852,11.852,0,0,0-1.257,1.257A14.455,14.455,0,0,0,73.4,61.439a28.647,28.647,0,0,0-1.5,4.085,30.7,30.7,0,0,0-1.012,4.4c-.223,1.493-.446,2.992-.66,4.512a10.324,10.324,0,0,0-.069,1.738,3.271,3.271,0,0,0,.343,1.4.82.82,0,0,0,.864.462,2.95,2.95,0,0,0,1.477-1.087A10.879,10.879,0,0,0,74.99,73.3c.487-1.367.943-2.693,1.345-3.994.478-1.4.9-2.828,1.285-4.261s.82-2.869,1.295-4.267a7.721,7.721,0,0,1,.531-1.885,1.955,1.955,0,0,1,.264-.943ZM142.29,57a29.686,29.686,0,0,0,1.725-2.85,6.187,6.187,0,0,0-2.407,2.2,11.728,11.728,0,0,0-1.5,2.677,1,1,0,0,0,.069.858c.748-.958,1.452-1.92,2.109-2.869m13.339,20.334a16.34,16.34,0,0,0-2.272-.314,4.654,4.654,0,0,0-2.2.383,2.488,2.488,0,0,0-.823.628,3.142,3.142,0,0,0-.628.943,1.1,1.1,0,0,0-.041.864c.107.261.418.415.943.471a3.79,3.79,0,0,0,2.743-.83,13.239,13.239,0,0,0,2.272-2.2m3.62-16.771q.55-.628.984-1.175a6.86,6.86,0,0,0,.745-1.178,1.521,1.521,0,0,0-1.257.786,4,4,0,0,0-.471,1.571" transform="translate(-0.007 0.004)"/>
      <path id="Path_2" data-name="Path 2" d="M177.649,98.515c0-.54,1.068-.365,1.392-.365h1.989c.214,0,.465-.028.578.207.163.336-.163.515-.443.518h-2.878c-.264,0-.628.019-.628-.361m7.35,14.891a6.514,6.514,0,0,1-11.231-6.523,10.3,10.3,0,0,1,1.458-2.1c.446-.534.965-1.021,1.373-1.571a2.278,2.278,0,0,0,.383-.8c.079-.314,0-.713.11-1.015s.478-.286.764-.286h1.273c.839,0,1.678-.019,2.514,0,.628,0,.506.6.575,1.068a3.026,3.026,0,0,0,.9,1.571,11.52,11.52,0,0,1,2.709,3.953,6.549,6.549,0,0,1-.839,5.732m-.613-6.759a15,15,0,0,0-1.445-1.826,10.244,10.244,0,0,1-1.213-1.452,2.6,2.6,0,0,1-.314-.776c-.028-.116-.041-.594-.1-.628-.123-.082-.559,0-.7,0h-2.379c-.044,0-.226-.028-.264,0a4.363,4.363,0,0,0-.1.6,3.409,3.409,0,0,1-.808,1.471,15.782,15.782,0,0,0-2.473,3.2,5.634,5.634,0,1,0,9.8-.584m-6.448-6.363h3.642c.314,0,.779-.2.468-.588-.145-.182-.424-.138-.628-.138h-3.589c-.267,0-.628-.019-.628.364s.468.361.751.361m4,9.245c-.138-.273-.27-.553-.39-.836a9.559,9.559,0,0,1-.5-1.483,13.374,13.374,0,0,1-.314-2.715c0-.277,0-.553-.016-.833a1.5,1.5,0,0,0-.06-.729.365.365,0,0,0-.528-.091c-.192.151-.138.437-.135.65a13.466,13.466,0,0,0,1.1,5.97,1.138,1.138,0,0,0-.943-.063c-.088.038-.4.349-.493.349-.041,0-.157-.126-.192-.151a1.364,1.364,0,0,0-.346-.217,1.16,1.16,0,0,0-.908.075,12.76,12.76,0,0,0,1.1-5.38c0-.314.154-1.006-.126-1.229-.336-.267-.578.107-.588.405-.022.845,0,1.687-.1,2.514a10.191,10.191,0,0,1-.418,2.077,10.817,10.817,0,0,1-.487,1.226c-.082.167-.163.336-.248.5a2.473,2.473,0,0,0-.28.544c-.085.443.368.478.669.355a7.992,7.992,0,0,1,.867-.4c.446-.119.578.349.943.468.465.157.672-.6,1.172-.468.342.091.628.33.968.437.229.072.66,0,.572-.343.038-.176-.232-.5-.314-.647" transform="translate(-118.732 -67.288)" fill="#feda00"/>
    </g>
  </g>
</svg>
