<svg xmlns="http://www.w3.org/2000/svg" width="16.539" height="20" viewBox="0 0 16.539 20">
  <g id="shopping-bag" transform="translate(4.469 -0.081)">
    <path id="Path_3" data-name="Path 3" d="M11.071,203.393H-3.469c-.029,0-.058,0-.087,0a1,1,0,0,1-.909-1.087l1.212-13.333a1,1,0,0,1,1-.909H9.859a1,1,0,0,1,.995.909L12.066,202.3c0,.028,0,.059,0,.09a1,1,0,0,1-1,1ZM-2.257,188.726a.331.331,0,0,0-.332.3L-3.8,202.363a.333.333,0,0,0,.3.362h14.57a.334.334,0,0,0,.333-.334L10.19,189.029a.332.332,0,0,0-.331-.3Zm3.391,1.668a.336.336,0,0,0-.334-.334l0-.667a1,1,0,0,1,1,1Zm0,0" transform="translate(0 -183.312)"/>
    <path id="Path_4" data-name="Path 4" d="M410.219,243.765a1,1,0,1,1,1-1A1,1,0,0,1,410.219,243.765Zm0-1.333a.333.333,0,1,0,.333.333A.334.334,0,0,0,410.219,242.432Zm0,0" transform="translate(-403.418 -235.684)"/>
    <path id="Path_5" data-name="Path 5" d="M168.539,243.765a1,1,0,0,1,0-2v.667a.333.333,0,1,0,.333.333h.667A1,1,0,0,1,168.539,243.765Zm0,0" transform="translate(-167.737 -235.684)"/>
    <path id="Path_6" data-name="Path 6" d="M208.123,242.766a.336.336,0,0,0-.334-.334l0-.667a1,1,0,0,1,1,1Zm0,0" transform="translate(-206.989 -235.685)"/>
    <path id="Path_7" data-name="Path 7" d="M201.058,6.414h-.667v-3a2.667,2.667,0,1,0-5.333,0v3h-.667v-3a3.333,3.333,0,1,1,6.667,0Zm0,0" transform="translate(-193.923 0)"/>
  </g>
</svg>
