<svg xmlns="http://www.w3.org/2000/svg" width="30" height="13.795" viewBox="0 0 30 13.795">
  <g id="tape" transform="translate(-5 -100.162)">
    <path id="Path_147" data-name="Path 147" d="M95.308,128.089c0-1.224-2.573-1.865-5.114-1.865s-5.114.641-5.114,1.865,2.573,1.865,5.114,1.865S95.308,129.313,95.308,128.089Zm-9.511,0c0-.39,1.552-1.147,4.4-1.147s4.4.758,4.4,1.147-1.552,1.147-4.4,1.147-4.4-.758-4.4-1.147Z" transform="translate(-75.294 -24.505)"/>
    <path id="Path_148" data-name="Path 148" d="M253.359,228.717h.12a.359.359,0,0,0,0-.717h-.12a.359.359,0,1,0,0,.717Z" transform="translate(-233.179 -120.198)"/>
    <path id="Path_149" data-name="Path 149" d="M275.359,228.717h5.5a.359.359,0,1,0,0-.717h-5.5a.359.359,0,0,0,0,.717Z" transform="translate(-253.865 -120.198)"/>
    <path id="Path_150" data-name="Path 150" d="M34.641,106.308H24.781v-2.724c0-.7-.523-1.7-3.037-2.508a23.307,23.307,0,0,0-6.851-.914,23.325,23.325,0,0,0-6.852.914C5.526,101.884,5,102.886,5,103.584v7.086H5c.042,2.151,5,3.287,9.895,3.287H34.641a.372.372,0,0,0,.359-.374v-6.944A.337.337,0,0,0,34.641,106.308Zm-.359,6.932h-.837v-1.7a.368.368,0,0,0-.348-.373.359.359,0,0,0-.37.359v1.715H30.936V109.9a.369.369,0,0,0-.348-.373.359.359,0,0,0-.37.359v3.357H28.785v-1.7a.368.368,0,0,0-.348-.373.359.359,0,0,0-.37.359v1.715H26.514V109.9a.369.369,0,0,0-.348-.373.359.359,0,0,0-.37.359v3.357H24.3v-1.7a.368.368,0,0,0-.348-.373.359.359,0,0,0-.37.359v1.715H22.032V109.9a.369.369,0,0,0-.348-.373.359.359,0,0,0-.37.359v3.357H19.88v-1.7a.368.368,0,0,0-.348-.373.359.359,0,0,0-.37.359v1.715H17.55V109.9a.369.369,0,0,0-.348-.373.359.359,0,0,0-.37.359v3.357H15.4v-1.791a.369.369,0,0,0-.348-.373.359.359,0,0,0-.37.359v1.79c-.6,0-1.076-.021-1.614-.051v-3.428a.368.368,0,0,0-.348-.373.359.359,0,0,0-.37.359v3.394c-.478-.041-1.016-.095-1.434-.158v-1.79a.369.369,0,0,0-.348-.373.359.359,0,0,0-.37.359v1.693a16.355,16.355,0,0,1-1.614-.351v-3.217a.368.368,0,0,0-.348-.373.359.359,0,0,0-.37.359v3.012c-1.375-.472-2.151-1.064-2.151-1.637v-5.721a6.641,6.641,0,0,0,2.325,1.168c.321.1.66.2,1.015.286a.355.355,0,1,0,.169-.689c-2.2-.535-3.514-1.344-3.514-2.1,0-1.279,3.775-2.708,9.184-2.708s9.178,1.439,9.178,2.718c0,1.223-3.445,2.591-8.473,2.71h-.023v-.013c-.239.005-.455,0-.693,0a27.754,27.754,0,0,1-3.317-.191.354.354,0,0,0-.4.352v.007a.355.355,0,0,0,.312.352,27.893,27.893,0,0,0,3.413.2l19.388,0Zm-10.219-8.316v1.384H21.106c.221-.06.431-.136.638-.2A6.762,6.762,0,0,0,24.064,104.924Z"/>
  </g>
</svg>
