<svg xmlns="http://www.w3.org/2000/svg" width="50" height="50" viewBox="0 0 50 50">
  <g id="Group_30" data-name="Group 30" transform="translate(-1850 -8011)">
    <g id="Group_20" data-name="Group 20" transform="translate(7 3856)">
      <path id="Path_201" data-name="Path 201" d="M25,0A25,25,0,1,1,0,25,25,25,0,0,1,25,0Z" transform="translate(1843 4155)"/>
      <g id="Layer_2" data-name="Layer 2" transform="translate(1819.799 4152.706)">
        <g id="Layer_1" data-name="Layer 1" transform="translate(40.572 22.988)">
          <path id="Path_2" data-name="Path 2" d="M178.425,98.582c0-.633,1.252-.427,1.631-.427h2.331c.25,0,.545-.033.678.243.192.394-.191.6-.519.608h-3.374c-.309,0-.737.022-.737-.424m8.614,17.453a7.635,7.635,0,0,1-13.163-7.646,12.072,12.072,0,0,1,1.709-2.464c.523-.626,1.131-1.2,1.609-1.841a2.67,2.67,0,0,0,.449-.939c.092-.368,0-.836.129-1.19s.56-.335.895-.335h1.492c.983,0,1.967-.022,2.946,0,.737,0,.593.7.674,1.252a3.546,3.546,0,0,0,1.053,1.841,13.5,13.5,0,0,1,3.175,4.633,7.675,7.675,0,0,1-.983,6.718m-.718-7.922a17.573,17.573,0,0,0-1.694-2.14,12.006,12.006,0,0,1-1.422-1.7,3.048,3.048,0,0,1-.368-.91c-.033-.136-.048-.7-.122-.737-.144-.1-.656,0-.821,0H179.1c-.052,0-.265-.033-.309,0a5.111,5.111,0,0,0-.122.707,4,4,0,0,1-.947,1.724,18.5,18.5,0,0,0-2.9,3.749,6.6,6.6,0,1,0,11.49-.685m-7.557-7.458h4.268c.368,0,.913-.236.549-.689-.169-.214-.5-.162-.737-.162h-4.206c-.313,0-.737-.022-.737.427s.549.423.88.423m4.685,10.835c-.162-.32-.317-.648-.457-.98a11.2,11.2,0,0,1-.582-1.738,15.674,15.674,0,0,1-.368-3.182c0-.324,0-.648-.018-.976a1.757,1.757,0,0,0-.07-.854.427.427,0,0,0-.619-.107c-.225.177-.162.512-.158.762a15.782,15.782,0,0,0,1.293,7,1.333,1.333,0,0,0-1.1-.074c-.1.044-.468.409-.578.409-.048,0-.184-.147-.225-.177a1.6,1.6,0,0,0-.405-.254,1.359,1.359,0,0,0-1.064.088,14.955,14.955,0,0,0,1.285-6.305c0-.368.18-1.179-.147-1.44-.394-.313-.678.125-.689.475-.026.991,0,1.978-.114,2.946a11.941,11.941,0,0,1-.49,2.434,12.673,12.673,0,0,1-.571,1.436c-.1.2-.192.394-.291.586a2.9,2.9,0,0,0-.328.637c-.1.519.431.56.784.416a9.371,9.371,0,0,1,1.016-.464c.523-.14.678.409,1.1.549.545.184.788-.707,1.374-.549.4.107.737.387,1.134.512.269.085.773,0,.67-.4.044-.206-.273-.582-.368-.759" transform="translate(-173.135 -98.123)" fill="#feda00"/>
        </g>
      </g>
    </g>
    <path id="right-arrow" d="M.682,28.636,0,27.955,13.636,14.318,0,.682.682,0,15,14.318Z" transform="translate(1860.682 8034) rotate(-90)" fill="#f9db2a"/>
  </g>
</svg>
