<svg xmlns="http://www.w3.org/2000/svg" width="18" height="22" viewBox="0 0 18 22">
  <g id="Group_2695" data-name="Group 2695" transform="translate(4235 3718)">
    <g id="Group_122" data-name="Group 122" transform="translate(-6034 -3777)">
      <g id="user" transform="translate(1799 59)">
        <path id="Path_8" data-name="Path 8" d="M82.946,8.43a4.215,4.215,0,1,0-4.215-4.215A4.215,4.215,0,0,0,82.946,8.43Zm0-7.537a3.322,3.322,0,1,1-3.322,3.322A3.322,3.322,0,0,1,82.946.893Zm0,0" transform="translate(-75.216)"/>
        <path id="Path_9" data-name="Path 9" d="M7.84,222.09A7.837,7.837,0,0,0,0,229.93v1.8a.446.446,0,0,0,.446.446H15.233a.446.446,0,0,0,.446-.446v-1.8a7.836,7.836,0,0,0-7.84-7.84Zm6.947,9.192H.893V229.93a6.947,6.947,0,1,1,13.894,0Zm0,0" transform="translate(0 -212.175)"/>
      </g>
      <circle id="Ellipse_1" data-name="Ellipse 1" cx="4" cy="4" r="4" transform="translate(1809 73)" fill="#f9db2a"/>
    </g>
  </g>
</svg>
